# xmcd
#
# Track frame offsets:
#	150
#	40525
#	88725
#	128889
#
# Disc length: 2342 seconds
#
# Revision: 0
# Processed by: cddbd v1.5.1PL0 Copyright (c) Steve Scherf et al.
# Submitted via: audiograbber 1.80
#
DISCID=29092404
DTITLE=Trio Gust - Domjenak
DYEAR=1900
DGENRE=
TTITLE0=Barba
TTITLE1=Baraba
TTITLE2=Becar
TTITLE3=Bekrija
EXTD=
EXTT0=
EXTT1=
EXTT2=
EXTT3=
PLAYORDER=
